<svg version="1.1" viewBox="0.0 0.0 902.6062992125984 194.6220472440945" fill="none" stroke="none" stroke-linecap="square" stroke-miterlimit="10" xmlns:xlink="http://www.w3.org/1999/xlink" xmlns="http://www.w3.org/2000/svg"><clipPath id="p.0"><path d="m0 0l902.6063 0l0 194.62204l-902.6063 0l0 -194.62204z" clip-rule="nonzero"/></clipPath><g clip-path="url(#p.0)"><path fill="#000000" fill-opacity="0.0" d="m0 0l902.6063 0l0 194.62204l-902.6063 0z" fill-rule="evenodd"/><path fill="#ff0000" d="m770.69684 91.69423l84.66144 0l0 32.283463l-84.66144 0z" fill-rule="evenodd"/><path fill="#ff0000" d="m553.0407 90.90688l111.6535 16.929138l-111.6535 16.92913z" fill-rule="evenodd"/><path fill="#ff0000" d="m470.08267 91.69423l84.66141 0l0 32.283463l-84.66141 0z" fill-rule="evenodd"/><path fill="#ff0000" d="m282.93045 96.97113l71.68503 10.866142l-71.68503 10.866142z" fill-rule="evenodd"/><path fill="#ffffff" d="m29.198162 77.89895l184.72441 0l0 59.874016l-184.72441 0z" fill-rule="evenodd"/><path stroke="#000000" stroke-width="1.0" stroke-linejoin="round" stroke-linecap="butt" d="m29.198162 77.89895l184.72441 0l0 59.874016l-184.72441 0z" fill-rule="evenodd"/><path fill="#000000" d="m48.927334 108.81846l0 3.828125q0 0.9375 0.109375 1.1875q0.109375 0.234375 0.40625 0.40625q0.3125 0.171875 0.828125 0.171875l0.40625 0l0 0.34375l-6.453125 0l0 -0.34375l0.40625 0q0.546875 0 0.875 -0.1875q0.234375 -0.125 0.359375 -0.4375q0.09375 -0.21875 0.09375 -1.140625l0 -8.125q0 -0.953125 -0.09375 -1.1875q-0.09375 -0.234375 -0.40625 -0.40625q-0.296875 -0.1875 -0.828125 -0.1875l-0.40625 0l0 -0.34375l6.453125 0l0 0.34375l-0.40625 0q-0.53125 0 -0.859375 0.1875q-0.234375 0.125 -0.375 0.4375q-0.109375 0.21875 -0.109375 1.15625l0 3.5l4.375 0l0 -3.5q0 -0.953125 -0.109375 -1.1875q-0.09375 -0.234375 -0.40625 -0.40625q-0.3125 -0.1875 -0.828125 -0.1875l-0.40625 0l0 -0.34375l6.453125 0l0 0.34375l-0.390625 0q-0.546875 0 -0.875 0.1875q-0.234375 0.125 -0.375 0.4375q-0.09375 0.21875 -0.09375 1.15625l0 8.125q0 0.9375 0.09375 1.1875q0.109375 0.234375 0.40625 0.40625q0.3125 0.171875 0.84375 0.171875l0.390625 0l0 0.34375l-6.453125 0l0 -0.34375l0.40625 0q0.546875 0 0.859375 -0.1875q0.25 -0.125 0.375 -0.4375q0.109375 -0.21875 0.109375 -1.140625l0 -3.828125l-4.375 0zm17.261433 1.375l-4.671879 0q0.078125 1.6875 0.90625 2.671875q0.625 0.765625 1.5 0.765625q0.5468788 0 0.9843788 -0.296875q0.453125 -0.3125 0.96875 -1.109375l0.3125 0.203125q-0.6875 1.40625 -1.53125 2.0q-0.8437538 0.578125 -1.9375038 0.578125q-1.890625 0 -2.875 -1.453125q-0.78125 -1.171875 -0.78125 -2.921875q0 -2.125 1.15625 -3.375q1.15625 -1.265625 2.703125 -1.265625q1.2812538 0 2.2343788 1.0625q0.953125 1.046875 1.03125 3.140625zm-2.2343788 -0.609375q0 -1.46875 -0.171875 -2.015625q-0.15625 -0.546875 -0.484375 -0.828125q-0.203125 -0.171875 -0.515625 -0.171875q-0.46875 0 -0.78125 0.46875q-0.53125 0.8125 -0.53125 2.21875l0 0.328125l2.484375 0zm6.6399117 -7.1875l0 10.59375q0 0.90625 0.203125 1.15625q0.203125 0.25 0.8125 0.28125l0 0.328125l-4.59375 0l0 -0.328125q0.5625 -0.015625 0.84375 -0.328125q0.171875 -0.203125 0.171875 -1.109375l0 -8.8125q0 -0.90625 -0.203125 -1.15625q-0.203125 -0.25 -0.8125 -0.28125l0 -0.34375l3.578125 0zm3.8864288 -0.28125q0.59375 0 1.0 0.421875q0.421875 0.40625 0.421875 0.984375q0 0.578125 -0.421875 1.0q-0.40625 0.40625 -1.0 0.40625q-0.578125 0 -0.984375 -0.40625q-0.40625 -0.421875 -0.40625 -1.0q0 -0.578125 0.40625 -0.984375q0.40625 -0.421875 0.984375 -0.421875zm1.28125 4.125l0 6.75q0 0.90625 0.203125 1.15625q0.21875 0.25 0.828125 0.28125l0 0.328125l-4.609375 0l0 -0.328125q0.578125 -0.015625 0.84375 -0.328125q0.1875 -0.203125 0.1875 -1.109375l0 -4.96875q0 -0.90625 -0.21875 -1.15625q-0.203125 -0.25 -0.8125 -0.296875l0 -0.328125l3.578125 0zm10.089554 0l0 6.671875q0 0.96875 0.171875 1.21875q0.1875 0.234375 0.75 0.296875l0 0.328125l-3.484375 0l0 -1.140625q-0.609375 0.734375 -1.21875 1.0625q-0.609375 0.328125 -1.359375 0.328125q-0.71875 0 -1.28125 -0.4375q-0.5625 -0.4375 -0.75 -1.03125q-0.1875 -0.59375 -0.1875 -2.0625l0 -3.390625q0 -0.96875 -0.1875 -1.203125q-0.171875 -0.234375 -0.734375 -0.3125l0 -0.328125l3.46875 0l0 5.8125q0 0.921875 0.078125 1.1875q0.09375 0.265625 0.28125 0.40625q0.1875 0.125 0.4375 0.125q0.328125 0 0.578125 -0.171875q0.375 -0.234375 0.875 -0.953125l0 -4.5625q0 -0.96875 -0.171875 -1.203125q-0.171875 -0.234375 -0.734375 -0.3125l0 -0.328125l3.46875 0zm5.672592 0l0 1.125q0.703125 -0.765625 1.296875 -1.0625q0.609375 -0.3125 1.3125 -0.3125q0.828125 0 1.375 0.390625q0.5625 0.375 0.859375 1.15625q0.734375 -0.828125 1.390625 -1.1875q0.671875 -0.359375 1.40625 -0.359375q0.890625 0 1.40625 0.40625q0.53125 0.390625 0.734375 1.015625q0.203125 0.625 0.203125 2.0l0 3.484375q0 0.984375 0.171875 1.21875q0.1875 0.234375 0.75 0.3125l0 0.328125l-4.40625 0l0 -0.328125q0.515625 -0.046875 0.765625 -0.40625q0.171875 -0.234375 0.171875 -1.125l0 -3.65625q0 -1.140625 -0.09375 -1.453125q-0.09375 -0.3125 -0.296875 -0.453125q-0.1875 -0.15625 -0.453125 -0.15625q-0.390625 0 -0.796875 0.296875q-0.390625 0.28125 -0.8125 0.84375l0 4.578125q0 0.921875 0.15625 1.15625q0.21875 0.34375 0.8125 0.375l0 0.328125l-4.421875 0l0 -0.328125q0.359375 -0.015625 0.5625 -0.171875q0.203125 -0.171875 0.265625 -0.390625q0.078125 -0.21875 0.078125 -0.96875l0 -3.65625q0 -1.15625 -0.09375 -1.453125q-0.09375 -0.296875 -0.3125 -0.453125q-0.203125 -0.171875 -0.453125 -0.171875q-0.359375 0 -0.65625 0.203125q-0.4375 0.28125 -0.921875 0.953125l0 4.578125q0 0.90625 0.171875 1.203125q0.1875 0.28125 0.75 0.328125l0 0.328125l-4.390625 0l0 -0.328125q0.546875 -0.046875 0.765625 -0.34375q0.15625 -0.203125 0.15625 -1.1875l0 -4.8125q0 -0.96875 -0.1875 -1.203125q-0.171875 -0.234375 -0.734375 -0.3125l0 -0.328125l3.46875 0zm20.68924 -3.84375l6.09375 7.671875l0 -5.3125q0 -1.109375 -0.3125 -1.5q-0.4375 -0.53125 -1.46875 -0.515625l0 -0.34375l4.078125 0l0 0.34375q-0.78125 0.09375 -1.046875 0.265625q-0.265625 0.15625 -0.421875 0.515625q-0.140625 0.359375 -0.140625 1.234375l0 10.28125l-0.3125 0l-8.359375 -10.28125l0 7.84375q0 1.078125 0.484375 1.453125q0.484375 0.359375 1.125 0.359375l0.28125 0l0 0.34375l-4.375 0l0 -0.34375q1.015625 0 1.421875 -0.40625q0.40625 -0.421875 0.40625 -1.40625l0 -8.71875l-0.265625 -0.328125q-0.390625 -0.484375 -0.703125 -0.640625q-0.296875 -0.15625 -0.859375 -0.171875l0 -0.34375l4.375 0zm16.676071 7.796875l-4.671875 0q0.078125 1.6875 0.90625 2.671875q0.625 0.765625 1.5 0.765625q0.546875 0 0.984375 -0.296875q0.453125 -0.3125 0.96875 -1.109375l0.3125 0.203125q-0.6875 1.40625 -1.53125 2.0q-0.84375 0.578125 -1.9375 0.578125q-1.890625 0 -2.875 -1.453125q-0.78125 -1.171875 -0.78125 -2.921875q0 -2.125 1.15625 -3.375q1.15625 -1.265625 2.703125 -1.265625q1.28125 0 2.234375 1.0625q0.953125 1.046875 1.03125 3.140625zm-2.234375 -0.609375q0 -1.46875 -0.171875 -2.015625q-0.15625 -0.546875 -0.484375 -0.828125q-0.203125 -0.171875 -0.515625 -0.171875q-0.46875 0 -0.78125 0.46875q-0.53125 0.8125 -0.53125 2.21875l0 0.328125l2.484375 0zm7.311783 -3.59375q1.109375 0 2.0625 0.578125q0.96875 0.5625 1.453125 1.625q0.5 1.046875 0.5 2.3125q0 1.8125 -0.90625 3.03125q-1.125 1.46875 -3.078125 1.46875q-1.921875 0 -2.96875 -1.34375q-1.03125 -1.34375 -1.03125 -3.125q0 -1.828125 1.0625 -3.1875q1.0625 -1.359375 2.90625 -1.359375zm0.046875 0.640625q-0.46875 0 -0.8125 0.359375q-0.328125 0.34375 -0.4375 1.375q-0.09375 1.03125 -0.09375 2.875q0 0.96875 0.125 1.828125q0.109375 0.640625 0.4375 0.984375q0.328125 0.328125 0.734375 0.328125q0.421875 0 0.6875 -0.21875q0.359375 -0.3125 0.46875 -0.875q0.1875 -0.859375 0.1875 -3.5q0 -1.546875 -0.171875 -2.125q-0.171875 -0.578125 -0.515625 -0.84375q-0.234375 -0.1875 -0.609375 -0.1875zm8.75 -0.390625l0 1.09375q0.65625 -0.703125 1.25 -1.015625q0.609375 -0.328125 1.296875 -0.328125q0.828125 0 1.375 0.453125q0.546875 0.453125 0.734375 1.140625q0.140625 0.515625 0.140625 2.0l0 3.3125q0 0.984375 0.171875 1.234375q0.1875 0.234375 0.75 0.296875l0 0.328125l-4.3125 0l0 -0.328125q0.484375 -0.0625 0.703125 -0.40625q0.140625 -0.21875 0.140625 -1.125l0 -3.78125q0 -1.0625 -0.09375 -1.328125q-0.078125 -0.265625 -0.28125 -0.421875q-0.1875 -0.15625 -0.421875 -0.15625q-0.78125 0 -1.453125 1.125l0 4.5625q0 0.953125 0.171875 1.21875q0.1875 0.25 0.671875 0.3125l0 0.328125l-4.3125 0l0 -0.328125q0.53125 -0.046875 0.765625 -0.34375q0.15625 -0.203125 0.15625 -1.1875l0 -4.8125q0 -0.96875 -0.1875 -1.203125q-0.171875 -0.234375 -0.734375 -0.3125l0 -0.328125l3.46875 0zm22.711655 4.171875l-0.46875 4.34375l-10.96875 0l0 -0.34375l0.40625 0q0.546875 0 0.875 -0.1875q0.234375 -0.125 0.359375 -0.4375q0.109375 -0.21875 0.109375 -1.140625l0 -8.125q0 -0.953125 -0.109375 -1.1875q-0.09375 -0.234375 -0.40625 -0.40625q-0.296875 -0.1875 -0.828125 -0.1875l-0.40625 0l0 -0.34375l6.59375 0l0 0.34375l-0.546875 0q-0.53125 0 -0.859375 0.1875q-0.234375 0.125 -0.375 0.4375q-0.09375 0.21875 -0.09375 1.15625l0 7.859375q0 0.953125 0.109375 1.21875q0.109375 0.25 0.421875 0.375q0.234375 0.09375 1.109375 0.09375l1.015625 0q0.984375 0 1.640625 -0.34375q0.65625 -0.359375 1.140625 -1.09375q0.484375 -0.75 0.90625 -2.21875l0.375 0zm5.990448 3.09375q-1.5625 1.375 -2.796875 1.375q-0.734375 0 -1.21875 -0.484375q-0.46875 -0.484375 -0.46875 -1.203125q0 -0.96875 0.828125 -1.75q0.84375 -0.78125 3.65625 -2.078125l0 -0.84375q0 -0.96875 -0.109375 -1.21875q-0.09375 -0.25 -0.390625 -0.4375q-0.296875 -0.1875 -0.65625 -0.1875q-0.59375 0 -0.96875 0.265625q-0.25 0.15625 -0.25 0.375q0 0.203125 0.265625 0.484375q0.34375 0.390625 0.34375 0.75q0 0.453125 -0.34375 0.765625q-0.328125 0.3125 -0.859375 0.3125q-0.578125 0 -0.96875 -0.34375q-0.375 -0.359375 -0.375 -0.8125q0 -0.65625 0.515625 -1.25q0.515625 -0.609375 1.4375 -0.921875q0.9375 -0.3125 1.9375 -0.3125q1.21875 0 1.921875 0.515625q0.703125 0.5 0.921875 1.109375q0.125 0.375 0.125 1.75l0 3.3125q0 0.578125 0.046875 0.734375q0.046875 0.15625 0.125 0.234375q0.09375 0.0625 0.21875 0.0625q0.234375 0 0.484375 -0.34375l0.265625 0.21875q-0.453125 0.6875 -0.9375 1.0q-0.484375 0.296875 -1.109375 0.296875q-0.734375 0 -1.140625 -0.34375q-0.40625 -0.34375 -0.5 -1.03125zm0 -0.671875l0 -2.84375q-1.09375 0.640625 -1.640625 1.375q-0.359375 0.5 -0.359375 1.0q0 0.40625 0.3125 0.734375q0.21875 0.25 0.625 0.25q0.46875 0 1.0625 -0.515625zm10.015625 -6.828125l0.140625 2.90625l-0.3125 0q-0.5625 -1.296875 -1.15625 -1.765625q-0.59375 -0.484375 -1.1875 -0.484375q-0.375 0 -0.640625 0.25q-0.265625 0.25 -0.265625 0.578125q0 0.25 0.1875 0.484375q0.28125 0.375 1.625 1.28125q1.34375 0.90625 1.765625 1.546875q0.421875 0.625 0.421875 1.40625q0 0.703125 -0.359375 1.390625q-0.34375 0.6875 -1.0 1.046875q-0.640625 0.359375 -1.421875 0.359375q-0.609375 0 -1.640625 -0.375q-0.265625 -0.109375 -0.375 -0.109375q-0.296875 0 -0.5 0.46875l-0.296875 0l-0.140625 -3.0625l0.3125 0q0.40625 1.203125 1.109375 1.8125q0.71875 0.59375 1.359375 0.59375q0.4375 0 0.71875 -0.265625q0.28125 -0.28125 0.28125 -0.65625q0 -0.4375 -0.28125 -0.75q-0.265625 -0.328125 -1.21875 -0.96875q-1.390625 -0.96875 -1.796875 -1.484375q-0.609375 -0.75 -0.609375 -1.640625q0 -0.984375 0.671875 -1.78125q0.6875 -0.796875 1.96875 -0.796875q0.703125 0 1.34375 0.328125q0.25 0.140625 0.40625 0.140625q0.15625 0 0.25 -0.0625q0.109375 -0.078125 0.328125 -0.390625l0.3125 0zm9.088394 4.1875l-4.671875 0q0.078125 1.6875 0.90625 2.671875q0.625 0.765625 1.5 0.765625q0.546875 0 0.984375 -0.296875q0.453125 -0.3125 0.96875 -1.109375l0.3125 0.203125q-0.6875 1.40625 -1.53125 2.0q-0.84375 0.578125 -1.9375 0.578125q-1.890625 0 -2.875 -1.453125q-0.78125 -1.171875 -0.78125 -2.921875q0 -2.125 1.15625 -3.375q1.15625 -1.265625 2.703125 -1.265625q1.28125 0 2.234375 1.0625q0.953125 1.046875 1.03125 3.140625zm-2.234375 -0.609375q0 -1.46875 -0.171875 -2.015625q-0.15625 -0.546875 -0.484375 -0.828125q-0.203125 -0.171875 -0.515625 -0.171875q-0.46875 0 -0.78125 0.46875q-0.53125 0.8125 -0.53125 2.21875l0 0.328125l2.484375 0zm6.827408 -3.34375l0 1.921875q0.859375 -1.3125 1.484375 -1.734375q0.640625 -0.4375 1.234375 -0.4375q0.515625 0 0.8125 0.3125q0.3125 0.3125 0.3125 0.890625q0 0.609375 -0.296875 0.953125q-0.296875 0.328125 -0.71875 0.328125q-0.484375 0 -0.84375 -0.3125q-0.34375 -0.3125 -0.40625 -0.34375q-0.09375 -0.0625 -0.21875 -0.0625q-0.265625 0 -0.5 0.203125q-0.375 0.3125 -0.5625 0.890625q-0.296875 0.875 -0.296875 1.9375l0 1.96875l0.015625 0.5q0 0.53125 0.0625 0.671875q0.109375 0.25 0.3125 0.359375q0.21875 0.109375 0.734375 0.140625l0 0.328125l-4.59375 0l0 -0.328125q0.546875 -0.046875 0.734375 -0.296875q0.203125 -0.265625 0.203125 -1.375l0 -4.71875q0 -0.71875 -0.0625 -0.921875q-0.09375 -0.25 -0.265625 -0.375q-0.171875 -0.125 -0.609375 -0.171875l0 -0.328125l3.46875 0z" fill-rule="nonzero"/><path fill="#ffffff" d="m213.92258 93.56941l15.086609 0l0 28.53543l-15.086609 0z" fill-rule="evenodd"/><path stroke="#000000" stroke-width="1.0" stroke-linejoin="round" stroke-linecap="butt" d="m213.92258 93.56941l15.086609 0l0 28.53543l-15.086609 0z" fill-rule="evenodd"/><path fill="#000000" fill-opacity="0.0" d="m229.00919 107.83713l38.834656 0" fill-rule="evenodd"/><path stroke="#ff0000" stroke-width="24.0" stroke-linejoin="round" stroke-linecap="butt" d="m229.00919 107.83713l38.834656 0" fill-rule="evenodd"/><path fill="#ffffff" d="m267.84384 107.83727l0 0c0 -19.7257 5.104645 -35.716537 11.40155 -35.716537l0 0c3.0238953 0 5.92395 3.7629776 8.062134 10.461128c2.138214 6.6981506 3.339447 15.782791 3.339447 25.25541l0 0c0 19.725693 -5.104645 35.71653 -11.401581 35.71653l0 0c-3.0238647 0 -5.9239197 -3.7629852 -8.062103 -10.461121c-2.138214 -6.6981583 -3.339447 -15.782799 -3.339447 -25.25541z" fill-rule="evenodd"/><path stroke="#000000" stroke-width="1.0" stroke-linejoin="round" stroke-linecap="butt" d="m267.84384 107.83727l0 0c0 -19.7257 5.104645 -35.716537 11.40155 -35.716537l0 0c3.0238953 0 5.92395 3.7629776 8.062134 10.461128c2.138214 6.6981506 3.339447 15.782791 3.339447 25.25541l0 0c0 19.725693 -5.104645 35.71653 -11.401581 35.71653l0 0c-3.0238647 0 -5.9239197 -3.7629852 -8.062103 -10.461121c-2.138214 -6.6981583 -3.339447 -15.782799 -3.339447 -25.25541z" fill-rule="evenodd"/><path fill="#000000" fill-opacity="0.0" d="m354.61548 111.272964l0 32.283463" fill-rule="evenodd"/><path stroke="#000000" stroke-width="4.0" stroke-linejoin="round" stroke-linecap="butt" d="m354.61548 111.272964l0 32.283463" fill-rule="evenodd"/><path fill="#000000" fill-opacity="0.0" d="m354.61548 72.11942l0 32.283463" fill-rule="evenodd"/><path stroke="#000000" stroke-width="4.0" stroke-linejoin="round" stroke-linecap="butt" d="m354.61548 72.11942l0 32.283463" fill-rule="evenodd"/><path fill="#ff0000" d="m466.26904 124.766464l-111.653564 -16.92913l111.653564 -16.929138z" fill-rule="evenodd"/><path fill="#ffffff" d="m453.9357 107.83727l0 0c0 -19.7257 5.104645 -35.716537 11.401581 -35.716537l0 0c3.0238647 0 5.9239197 3.7629776 8.062134 10.461128c2.1381836 6.6981506 3.3394165 15.782791 3.3394165 25.25541l0 0c0 19.725693 -5.104645 35.71653 -11.40155 35.71653l0 0c-3.0238953 0 -5.9239197 -3.7629852 -8.062134 -10.461121c-2.138214 -6.6981583 -3.339447 -15.782799 -3.339447 -25.25541z" fill-rule="evenodd"/><path stroke="#000000" stroke-width="1.0" stroke-linejoin="round" stroke-linecap="butt" d="m453.9357 107.83727l0 0c0 -19.7257 5.104645 -35.716537 11.401581 -35.716537l0 0c3.0238647 0 5.9239197 3.7629776 8.062134 10.461128c2.1381836 6.6981506 3.3394165 15.782791 3.3394165 25.25541l0 0c0 19.725693 -5.104645 35.71653 -11.40155 35.71653l0 0c-3.0238953 0 -5.9239197 -3.7629852 -8.062134 -10.461121c-2.138214 -6.6981583 -3.339447 -15.782799 -3.339447 -25.25541z" fill-rule="evenodd"/><path fill="#ffffff" d="m543.9199 107.83727l0 0c0 -19.7257 5.1046753 -35.716537 11.401611 -35.716537l0 0c3.0238647 0 5.923889 3.7629776 8.062134 10.461128c2.1381836 6.6981506 3.3394165 15.782791 3.3394165 25.25541l0 0c0 19.725693 -5.1046753 35.71653 -11.40155 35.71653l0 0c-3.0239258 0 -5.92395 -3.7629852 -8.062134 -10.461121c-2.1382446 -6.6981583 -3.3394775 -15.782799 -3.3394775 -25.25541z" fill-rule="evenodd"/><path stroke="#000000" stroke-width="1.0" stroke-linejoin="round" stroke-linecap="butt" d="m543.9199 107.83727l0 0c0 -19.7257 5.1046753 -35.716537 11.401611 -35.716537l0 0c3.0238647 0 5.923889 3.7629776 8.062134 10.461128c2.1381836 6.6981506 3.3394165 15.782791 3.3394165 25.25541l0 0c0 19.725693 -5.1046753 35.71653 -11.40155 35.71653l0 0c-3.0239258 0 -5.92395 -3.7629852 -8.062134 -10.461121c-2.1382446 -6.6981583 -3.3394775 -15.782799 -3.3394775 -25.25541z" fill-rule="evenodd"/><path fill="#ff0000" d="m770.69684 124.76384l-111.6535 -16.92913l111.6535 -16.929138z" fill-rule="evenodd"/><path fill="#ffffff" d="m756.9829 107.83465l0 0c0 -19.7257 5.1046753 -35.716537 11.401611 -35.716537l0 0c3.0238647 0 5.923889 3.7629776 8.062134 10.461128c2.1381836 6.6981506 3.3394165 15.782791 3.3394165 25.25541l0 0c0 19.725693 -5.1046143 35.71653 -11.40155 35.71653l0 0c-3.0238647 0 -5.92395 -3.7629852 -8.062134 -10.461121c-2.1382446 -6.6981583 -3.3394775 -15.782799 -3.3394775 -25.25541z" fill-rule="evenodd"/><path stroke="#000000" stroke-width="1.0" stroke-linejoin="round" stroke-linecap="butt" d="m756.9829 107.83465l0 0c0 -19.7257 5.1046753 -35.716537 11.401611 -35.716537l0 0c3.0238647 0 5.923889 3.7629776 8.062134 10.461128c2.1381836 6.6981506 3.3394165 15.782791 3.3394165 25.25541l0 0c0 19.725693 -5.1046143 35.71653 -11.40155 35.71653l0 0c-3.0238647 0 -5.92395 -3.7629852 -8.062134 -10.461121c-2.1382446 -6.6981583 -3.3394775 -15.782799 -3.3394775 -25.25541z" fill-rule="evenodd"/><path fill="#000000" fill-opacity="0.0" d="m855.3583 52.92126l0 109.82677" fill-rule="evenodd"/><path stroke="#000000" stroke-width="8.0" stroke-linejoin="round" stroke-linecap="butt" d="m855.3583 52.92126l0 109.82677" fill-rule="evenodd"/><path fill="#000000" fill-opacity="0.0" d="m856.4619 57.09186l21.7323 21.732288" fill-rule="evenodd"/><path stroke="#000000" stroke-width="4.0" stroke-linejoin="round" stroke-linecap="butt" d="m856.4619 57.09186l21.7323 21.732288" fill-rule="evenodd"/><path fill="#000000" fill-opacity="0.0" d="m856.4619 77.396324l21.7323 21.732285" fill-rule="evenodd"/><path stroke="#000000" stroke-width="4.0" stroke-linejoin="round" stroke-linecap="butt" d="m856.4619 77.396324l21.7323 21.732285" fill-rule="evenodd"/><path fill="#000000" fill-opacity="0.0" d="m856.4619 97.43307l21.7323 21.732285" fill-rule="evenodd"/><path stroke="#000000" stroke-width="4.0" stroke-linejoin="round" stroke-linecap="butt" d="m856.4619 97.43307l21.7323 21.732285" fill-rule="evenodd"/><path fill="#000000" fill-opacity="0.0" d="m856.4619 116.54855l21.7323 21.732285" fill-rule="evenodd"/><path stroke="#000000" stroke-width="4.0" stroke-linejoin="round" stroke-linecap="butt" d="m856.4619 116.54855l21.7323 21.732285" fill-rule="evenodd"/><path fill="#000000" fill-opacity="0.0" d="m856.4619 137.77428l21.7323 21.732285" fill-rule="evenodd"/><path stroke="#000000" stroke-width="4.0" stroke-linejoin="round" stroke-linecap="butt" d="m856.4619 137.77428l21.7323 21.732285" fill-rule="evenodd"/><path fill="#000000" fill-opacity="0.0" d="m243.04068 57.09186l151.46457 0l0 101.322845l-151.46457 0z" fill-rule="evenodd"/><path stroke="#000000" stroke-width="2.0" stroke-linejoin="round" stroke-linecap="butt" stroke-dasharray="8.0,6.0" d="m243.04068 57.09186l151.46457 0l0 101.322845l-151.46457 0z" fill-rule="evenodd"/><path fill="#000000" fill-opacity="0.0" d="m254.66273 14.553805l128.22047 0l0 32.283463l-128.22047 0z" fill-rule="evenodd"/><path fill="#000000" d="m263.78772 41.755054l1.015625 -4.578125l0.3125 0q-0.0625 0.65625 -0.0625 1.09375q0 1.25 0.796875 2.046875q0.796875 0.78125 2.078125 0.78125q1.203125 0 1.8125 -0.734375q0.625 -0.734375 0.625 -1.703125q0 -0.609375 -0.28125 -1.125q-0.421875 -0.75 -2.28125 -2.65625q-0.90625 -0.90625 -1.15625 -1.359375q-0.421875 -0.734375 -0.421875 -1.546875q0 -1.296875 0.953125 -2.21875q0.96875 -0.921875 2.484375 -0.921875q0.515625 0 0.96875 0.109375q0.28125 0.046875 1.03125 0.359375q0.53125 0.21875 0.578125 0.234375q0.125 0.015625 0.28125 0.015625q0.265625 0 0.453125 -0.125q0.203125 -0.140625 0.453125 -0.59375l0.34375 0l-0.9375 4.109375l-0.3125 0q0.03125 -0.546875 0.03125 -0.890625q0 -1.09375 -0.734375 -1.796875q-0.71875 -0.703125 -1.921875 -0.703125q-0.9375 0 -1.53125 0.5625q-0.59375 0.546875 -0.59375 1.28125q0 0.625 0.375 1.203125q0.375 0.578125 1.734375 1.890625q1.375 1.3125 1.765625 2.046875q0.40625 0.734375 0.40625 1.5625q0 0.9375 -0.5 1.8125q-0.5 0.875 -1.4375 1.359375q-0.921875 0.484375 -2.015625 0.484375q-0.546875 0 -1.03125 -0.109375q-0.46875 -0.09375 -1.5 -0.484375q-0.359375 -0.140625 -0.59375 -0.140625q-0.53125 0 -0.84375 0.734375l-0.34375 0zm13.328125 -8.53125l-0.625 2.09375q0.984375 -1.15625 1.765625 -1.625q0.78125 -0.46875 1.59375 -0.46875q0.8125 0 1.375 0.65625q0.578125 0.640625 0.578125 1.65625q0 2.015625 -1.625 4.09375q-1.625 2.0625 -3.796875 2.0625q-0.453125 0 -0.8125 -0.109375q-0.34375 -0.09375 -0.78125 -0.34375l-0.671875 2.34375q-0.203125 0.703125 -0.203125 0.90625q0 0.203125 0.109375 0.34375q0.109375 0.140625 0.34375 0.21875q0.234375 0.078125 0.9375 0.078125l-0.078125 0.328125l-4.296875 0l0.09375 -0.328125q0.84375 -0.046875 1.140625 -0.296875q0.296875 -0.25 0.625 -1.40625l2.3125 -7.984375q0.203125 -0.75 0.203125 -0.9375q0 -0.25 -0.140625 -0.375q-0.140625 -0.140625 -0.4375 -0.140625q-0.265625 0 -0.734375 0.0625l0 -0.359375l3.125 -0.46875zm-2.125 7.296875q0.5625 0.671875 1.53125 0.671875q0.46875 0 0.953125 -0.265625q0.5 -0.265625 0.96875 -0.78125q0.46875 -0.515625 0.84375 -1.1875q0.375 -0.6875 0.671875 -1.609375q0.296875 -0.921875 0.296875 -1.828125q0 -0.71875 -0.34375 -1.109375q-0.328125 -0.390625 -0.765625 -0.390625q-0.984375 0 -1.953125 1.140625q-0.953125 1.125 -1.40625 2.625l-0.796875 2.734375zm16.078125 -7.296875l-1.765625 6.1875l-0.203125 0.828125q-0.03125 0.109375 -0.03125 0.203125q0 0.140625 0.09375 0.25q0.078125 0.078125 0.171875 0.078125q0.125 0 0.3125 -0.140625q0.359375 -0.265625 0.953125 -1.09375l0.3125 0.21875q-0.625 0.9375 -1.296875 1.4375q-0.671875 0.5 -1.234375 0.5q-0.390625 0 -0.59375 -0.203125q-0.1875 -0.1875 -0.1875 -0.5625q0 -0.453125 0.203125 -1.171875l0.1875 -0.6875q-1.1875 1.5625 -2.1875 2.171875q-0.71875 0.453125 -1.421875 0.453125q-0.65625 0 -1.140625 -0.546875q-0.484375 -0.5625 -0.484375 -1.515625q0 -1.453125 0.859375 -3.0625q0.875 -1.609375 2.21875 -2.578125q1.046875 -0.765625 1.984375 -0.765625q0.546875 0 0.90625 0.296875q0.375 0.296875 0.578125 0.96875l0.328125 -1.046875l1.4375 -0.21875zm-3.234375 0.484375q-0.59375 0 -1.25 0.546875q-0.921875 0.765625 -1.65625 2.296875q-0.71875 1.515625 -0.71875 2.75q0 0.609375 0.3125 0.96875q0.3125 0.359375 0.71875 0.359375q0.984375 0 2.15625 -1.46875q1.546875 -1.9375 1.546875 -3.984375q0 -0.78125 -0.296875 -1.125q-0.296875 -0.34375 -0.8125 -0.34375zm8.65625 -2.734375l-0.703125 2.46875l1.421875 0l-0.15625 0.578125l-1.421875 0l-1.5625 5.375q-0.25 0.859375 -0.25 1.125q0 0.15625 0.0625 0.234375q0.078125 0.078125 0.171875 0.078125q0.234375 0 0.609375 -0.3125q0.21875 -0.1875 0.96875 -1.125l0.3125 0.234375q-0.84375 1.21875 -1.59375 1.71875q-0.5 0.34375 -1.03125 0.34375q-0.390625 0 -0.65625 -0.25q-0.25 -0.25 -0.25 -0.640625q0 -0.5 0.296875 -1.5l1.515625 -5.28125l-1.375 0l0.09375 -0.359375q1.0 -0.265625 1.65625 -0.8125q0.671875 -0.546875 1.5 -1.875l0.390625 0zm4.511444 -1.359375q0.390625 0 0.640625 0.265625q0.265625 0.265625 0.265625 0.640625q0 0.375 -0.265625 0.65625q-0.265625 0.265625 -0.640625 0.265625q-0.375 0 -0.640625 -0.265625q-0.265625 -0.28125 -0.265625 -0.65625q0 -0.375 0.265625 -0.640625q0.265625 -0.265625 0.640625 -0.265625zm0.125 3.609375l-1.8125 6.390625q-0.171875 0.640625 -0.171875 0.78125q0 0.140625 0.078125 0.234375q0.09375 0.09375 0.203125 0.09375q0.140625 0 0.328125 -0.15625q0.515625 -0.40625 1.046875 -1.15625l0.328125 0.203125q-0.625 0.953125 -1.46875 1.59375q-0.609375 0.484375 -1.171875 0.484375q-0.375 0 -0.625 -0.21875q-0.234375 -0.234375 -0.234375 -0.5625q0 -0.34375 0.234375 -1.125l1.1875 -4.078125q0.28125 -1.0 0.28125 -1.25q0 -0.203125 -0.140625 -0.328125q-0.140625 -0.140625 -0.375 -0.140625q-0.203125 0 -0.84375 0.109375l0 -0.359375l3.15625 -0.515625zm9.636414 0l-1.765625 6.1875l-0.203125 0.828125q-0.03125 0.109375 -0.03125 0.203125q0 0.140625 0.09375 0.25q0.078125 0.078125 0.171875 0.078125q0.125 0 0.3125 -0.140625q0.359375 -0.265625 0.953125 -1.09375l0.3125 0.21875q-0.625 0.9375 -1.296875 1.4375q-0.671875 0.5 -1.234375 0.5q-0.390625 0 -0.59375 -0.203125q-0.1875 -0.1875 -0.1875 -0.5625q0 -0.453125 0.203125 -1.171875l0.1875 -0.6875q-1.1875 1.5625 -2.1875 2.171875q-0.71875 0.453125 -1.421875 0.453125q-0.65625 0 -1.140625 -0.546875q-0.484375 -0.5625 -0.484375 -1.515625q0 -1.453125 0.859375 -3.0625q0.875 -1.609375 2.21875 -2.578125q1.046875 -0.765625 1.984375 -0.765625q0.546875 0 0.90625 0.296875q0.375 0.296875 0.578125 0.96875l0.328125 -1.046875l1.4375 -0.21875zm-3.234375 0.484375q-0.59375 0 -1.25 0.546875q-0.921875 0.765625 -1.65625 2.296875q-0.71875 1.515625 -0.71875 2.75q0 0.609375 0.3125 0.96875q0.3125 0.359375 0.71875 0.359375q0.984375 0 2.15625 -1.46875q1.546875 -1.9375 1.546875 -3.984375q0 -0.78125 -0.296875 -1.125q-0.296875 -0.34375 -0.8125 -0.34375zm9.359375 -5.1875l-3.109375 10.84375q-0.234375 0.8125 -0.234375 0.984375q0 0.140625 0.078125 0.234375q0.09375 0.09375 0.21875 0.09375q0.171875 0 0.375 -0.15625q0.484375 -0.375 1.0 -1.15625l0.265625 0.28125q-0.859375 1.21875 -1.59375 1.703125q-0.53125 0.34375 -1.015625 0.34375q-0.34375 0 -0.578125 -0.234375q-0.234375 -0.234375 -0.234375 -0.546875q0 -0.328125 0.296875 -1.34375l2.46875 -8.546875q0.296875 -1.046875 0.296875 -1.203125q0 -0.21875 -0.171875 -0.359375q-0.171875 -0.140625 -0.546875 -0.140625q-0.203125 0 -0.625 0.0625l0 -0.34375l3.109375 -0.515625zm10.363007 1.25l-1.453125 4.890625l1.625 0q1.09375 0 1.625 -0.328125q0.546875 -0.34375 1.125 -1.4375l0.34375 0l-1.28125 4.5l-0.375 0q0.140625 -0.546875 0.140625 -0.90625q0 -0.546875 -0.375 -0.859375q-0.359375 -0.3125 -1.375 -0.3125l-1.640625 0l-1.0625 3.734375q-0.296875 0.984375 -0.296875 1.3125q0 0.34375 0.25 0.53125q0.25 0.171875 1.21875 0.234375l-0.109375 0.34375l-4.875 0l0.109375 -0.34375q0.71875 -0.015625 0.953125 -0.125q0.359375 -0.15625 0.53125 -0.421875q0.25 -0.359375 0.59375 -1.53125l2.171875 -7.4375q0.265625 -0.90625 0.265625 -1.421875q0 -0.234375 -0.125 -0.390625q-0.109375 -0.171875 -0.34375 -0.25q-0.234375 -0.09375 -0.921875 -0.09375l0.109375 -0.34375l9.578125 0l-0.90625 3.125l-0.34375 0q0.09375 -0.5625 0.09375 -0.921875q0 -0.609375 -0.328125 -0.953125q-0.328125 -0.34375 -0.859375 -0.5q-0.359375 -0.09375 -1.625 -0.09375l-2.4375 0zm9.505341 -0.15625q0.390625 0 0.640625 0.265625q0.265625 0.265625 0.265625 0.640625q0 0.375 -0.265625 0.65625q-0.265625 0.265625 -0.640625 0.265625q-0.375 0 -0.640625 -0.265625q-0.265625 -0.28125 -0.265625 -0.65625q0 -0.375 0.265625 -0.640625q0.265625 -0.265625 0.640625 -0.265625zm0.125 3.609375l-1.8125 6.390625q-0.171875 0.640625 -0.171875 0.78125q0 0.140625 0.078125 0.234375q0.09375 0.09375 0.203125 0.09375q0.140625 0 0.328125 -0.15625q0.515625 -0.40625 1.046875 -1.15625l0.328125 0.203125q-0.625 0.953125 -1.46875 1.59375q-0.609375 0.484375 -1.171875 0.484375q-0.375 0 -0.625 -0.21875q-0.234375 -0.234375 -0.234375 -0.5625q0 -0.34375 0.234375 -1.125l1.1875 -4.078125q0.28125 -1.0 0.28125 -1.25q0 -0.203125 -0.140625 -0.328125q-0.140625 -0.140625 -0.375 -0.140625q-0.203125 0 -0.84375 0.109375l0 -0.359375l3.15625 -0.515625zm6.433319 -4.703125l-3.109375 10.84375q-0.234375 0.8125 -0.234375 0.984375q0 0.140625 0.078125 0.234375q0.09375 0.09375 0.21875 0.09375q0.171875 0 0.375 -0.15625q0.484375 -0.375 1.0 -1.15625l0.265625 0.28125q-0.859375 1.21875 -1.59375 1.703125q-0.53125 0.34375 -1.015625 0.34375q-0.34375 0 -0.578125 -0.234375q-0.234375 -0.234375 -0.234375 -0.546875q0 -0.328125 0.296875 -1.34375l2.46875 -8.546875q0.296875 -1.046875 0.296875 -1.203125q0 -0.21875 -0.171875 -0.359375q-0.171875 -0.140625 -0.546875 -0.140625q-0.203125 0 -0.625 0.0625l0 -0.34375l3.109375 -0.515625zm4.4801636 2.453125l-0.703125 2.46875l1.421875 0l-0.15625 0.578125l-1.421875 0l-1.5625 5.375q-0.25 0.859375 -0.25 1.125q0 0.15625 0.0625 0.234375q0.078125 0.078125 0.171875 0.078125q0.234375 0 0.609375 -0.3125q0.21875 -0.1875 0.96875 -1.125l0.3125 0.234375q-0.84375 1.21875 -1.59375 1.71875q-0.5 0.34375 -1.03125 0.34375q-0.390625 0 -0.65625 -0.25q-0.25 -0.25 -0.25 -0.640625q0 -0.5 0.296875 -1.5l1.515625 -5.28125l-1.375 0l0.09375 -0.359375q1.0 -0.265625 1.65625 -0.8125q0.671875 -0.546875 1.5 -1.875l0.390625 0zm2.558319 7.0625q-0.0625 0.453125 -0.0625 0.765625q0 0.796875 0.578125 1.375q0.578125 0.5625 1.390625 0.5625q0.65625 0 1.265625 -0.265625q0.609375 -0.265625 1.796875 -1.1875l0.1875 0.265625q-2.15625 2.140625 -4.109375 2.140625q-1.328125 0 -2.015625 -0.828125q-0.671875 -0.84375 -0.671875 -1.859375q0 -1.359375 0.84375 -2.78125q0.84375 -1.421875 2.109375 -2.203125q1.265625 -0.796875 2.59375 -0.796875q0.96875 0 1.4375 0.40625q0.46875 0.390625 0.46875 0.921875q0 0.75 -0.609375 1.453125q-0.796875 0.890625 -2.328125 1.453125q-1.015625 0.375 -2.875 0.578125zm0.0625 -0.4375q1.359375 -0.15625 2.203125 -0.53125q1.125 -0.5 1.671875 -1.1875q0.5625 -0.703125 0.5625 -1.34375q0 -0.375 -0.25 -0.609375q-0.234375 -0.234375 -0.671875 -0.234375q-0.9375 0 -1.984375 0.984375q-1.03125 0.984375 -1.53125 2.921875zm6.9680176 -3.859375l3.15625 -0.515625l-1.3125 4.4375q1.59375 -2.734375 2.890625 -3.8125q0.734375 -0.625 1.203125 -0.625q0.296875 0 0.46875 0.1875q0.171875 0.171875 0.171875 0.515625q0 0.59375 -0.3125 1.140625q-0.21875 0.40625 -0.625 0.40625q-0.203125 0 -0.359375 -0.125q-0.140625 -0.140625 -0.1875 -0.421875q-0.015625 -0.171875 -0.078125 -0.234375q-0.078125 -0.0625 -0.171875 -0.0625q-0.15625 0 -0.296875 0.0625q-0.234375 0.125 -0.71875 0.71875q-0.75 0.890625 -1.640625 2.3125q-0.375 0.59375 -0.65625 1.359375q-0.375 1.03125 -0.4375 1.25l-0.28125 1.140625l-1.40625 0l1.6875 -5.65625q0.296875 -0.984375 0.296875 -1.40625q0 -0.15625 -0.140625 -0.265625q-0.171875 -0.15625 -0.484375 -0.15625q-0.1875 0 -0.703125 0.09375l-0.0625 -0.34375z" fill-rule="nonzero"/><path fill="#000000" fill-opacity="0.0" d="m448.30447 47.343834l128.22049 0l0 21.732285l-128.22049 0z" fill-rule="evenodd"/><path fill="#0000ff" d="m472.64777 52.48935q1.234375 0 2.171875 0.546875q0.953125 0.53125 1.484375 1.578125q0.546875 1.03125 0.546875 2.15625q0 1.984375 -1.15625 4.171875q-1.140625 2.171875 -3.0 3.328125q-1.859375 1.140625 -3.84375 1.140625q-1.4375 0 -2.40625 -0.625q-0.953125 -0.640625 -1.421875 -1.671875q-0.453125 -1.046875 -0.453125 -2.015625q0 -1.734375 0.828125 -3.421875q0.84375 -1.6875 2.0 -2.828125q1.15625 -1.140625 2.46875 -1.75q1.3125 -0.609375 2.78125 -0.609375zm-0.3125 0.59375q-0.90625 0 -1.78125 0.453125q-0.859375 0.4375 -1.71875 1.46875q-0.859375 1.03125 -1.546875 2.6875q-0.828125 2.03125 -0.828125 3.84375q0 1.296875 0.65625 2.296875q0.671875 1.0 2.046875 1.0q0.828125 0 1.625 -0.40625q0.796875 -0.421875 1.65625 -1.40625q1.09375 -1.25 1.828125 -3.1875q0.734375 -1.9375 0.734375 -3.609375q0 -1.234375 -0.671875 -2.1875q-0.65625 -0.953125 -2.0 -0.953125zm9.988556 -0.90625l-1.796875 6.296875q0.875 -0.90625 1.515625 -1.25q0.65625 -0.34375 1.375 -0.34375q1.0 0 1.625 0.671875q0.640625 0.65625 0.640625 1.796875q0 1.46875 -0.84375 2.921875q-0.828125 1.453125 -2.09375 2.265625q-1.265625 0.8125 -2.5 0.8125q-1.375 0 -2.828125 -1.03125l2.78125 -9.53125q0.3125 -1.109375 0.3125 -1.296875q0 -0.234375 -0.140625 -0.359375q-0.21875 -0.15625 -0.625 -0.15625q-0.1875 0 -0.578125 0.0625l0 -0.34375l3.15625 -0.515625zm-3.53125 12.25q0.90625 0.5 1.609375 0.5q0.796875 0 1.65625 -0.59375q0.859375 -0.59375 1.484375 -1.984375q0.640625 -1.390625 0.640625 -2.8125q0 -0.84375 -0.421875 -1.3125q-0.40625 -0.46875 -0.96875 -0.46875q-0.84375 0 -1.65625 0.6875q-0.8125 0.671875 -1.15625 1.875l-1.1875 4.109375zm11.75 -11.140625q0.375 0 0.640625 0.265625q0.28125 0.265625 0.28125 0.640625q0 0.390625 -0.28125 0.65625q-0.265625 0.265625 -0.640625 0.265625q-0.390625 0 -0.65625 -0.265625q-0.265625 -0.265625 -0.265625 -0.65625q0 -0.375 0.265625 -0.640625q0.265625 -0.265625 0.65625 -0.265625zm0.140625 3.59375l-2.359375 8.15625q-0.625 2.1875 -1.734375 3.15625q-1.09375 0.96875 -2.359375 0.96875q-0.578125 0 -0.875 -0.265625q-0.296875 -0.265625 -0.296875 -0.625q0 -0.296875 0.234375 -0.515625q0.21875 -0.203125 0.5 -0.203125q0.265625 0 0.46875 0.171875q0.171875 0.140625 0.171875 0.3125q0 0.234375 -0.234375 0.40625q-0.125 0.109375 -0.125 0.171875l0.015625 0.046875q0.03125 0.03125 0.09375 0.046875q0.046875 0.015625 0.15625 0.015625q0.734375 0 1.265625 -0.46875q0.515625 -0.46875 0.921875 -1.875l2.046875 -6.984375q0.296875 -1.03125 0.296875 -1.140625q0 -0.21875 -0.203125 -0.390625q-0.1875 -0.171875 -0.484375 -0.171875q-0.125 0 -0.28125 0.015625q-0.109375 0.03125 -0.34375 0.0625l0 -0.3125l3.125 -0.578125zm2.980194 4.8125q-0.0625 0.453125 -0.0625 0.765625q0 0.796875 0.578125 1.375q0.578125 0.5625 1.390625 0.5625q0.65625 0 1.265625 -0.265625q0.609375 -0.265625 1.796875 -1.1875l0.1875 0.265625q-2.15625 2.140625 -4.109375 2.140625q-1.328125 0 -2.015625 -0.828125q-0.671875 -0.84375 -0.671875 -1.859375q0 -1.359375 0.84375 -2.78125q0.84375 -1.421875 2.109375 -2.203125q1.265625 -0.796875 2.59375 -0.796875q0.96875 0 1.4375 0.40625q0.46875 0.390625 0.46875 0.921875q0 0.75 -0.609375 1.453125q-0.796875 0.890625 -2.328125 1.453125q-1.015625 0.375 -2.875 0.578125zm0.0625 -0.4375q1.359375 -0.15625 2.203125 -0.53125q1.125 -0.5 1.671875 -1.1875q0.5625 -0.703125 0.5625 -1.34375q0 -0.375 -0.25 -0.609375q-0.234375 -0.234375 -0.671875 -0.234375q-0.9375 0 -1.984375 0.984375q-1.03125 0.984375 -1.53125 2.921875zm13.202393 1.890625q-0.9375 1.140625 -1.90625 1.671875q-0.96875 0.53125 -2.046875 0.53125q-1.28125 0 -2.015625 -0.71875q-0.71875 -0.734375 -0.71875 -1.96875q0 -1.390625 0.78125 -2.734375q0.78125 -1.359375 2.09375 -2.203125q1.3125 -0.84375 2.578125 -0.84375q1.0 0 1.484375 0.421875q0.5 0.40625 0.5 1.015625q0 0.5625 -0.34375 0.96875q-0.265625 0.3125 -0.640625 0.3125q-0.28125 0 -0.46875 -0.1875q-0.1875 -0.1875 -0.1875 -0.453125q0 -0.171875 0.0625 -0.3125q0.078125 -0.15625 0.296875 -0.359375q0.21875 -0.203125 0.25 -0.296875q0.046875 -0.09375 0.046875 -0.1875q0 -0.203125 -0.171875 -0.328125q-0.265625 -0.171875 -0.75 -0.171875q-0.890625 0 -1.765625 0.625q-0.875 0.625 -1.484375 1.78125q-0.75 1.40625 -0.75 2.8125q0 0.921875 0.53125 1.46875q0.53125 0.546875 1.4375 0.546875q0.703125 0 1.390625 -0.34375q0.6875 -0.359375 1.546875 -1.28125l0.25 0.234375zm5.9211426 -8.515625l-0.703125 2.46875l1.421875 0l-0.15625 0.578125l-1.4218445 0l-1.5625 5.375q-0.25 0.859375 -0.25 1.125q0 0.15625 0.0625 0.234375q0.078125 0.078125 0.171875 0.078125q0.234375 0 0.609375 -0.3125q0.21875 -0.1875 0.96875 -1.125l0.31246948 0.234375q-0.8437195 1.21875 -1.5937195 1.71875q-0.5 0.34375 -1.03125 0.34375q-0.390625 0 -0.65625 -0.25q-0.25 -0.25 -0.25 -0.640625q0 -0.5 0.296875 -1.5l1.515625 -5.28125l-1.375 0l0.09375 -0.359375q1.0 -0.265625 1.65625 -0.8125q0.671875 -0.546875 1.4999695 -1.875l0.390625 0zm7.925537 -1.859375l4.859375 0q1.90625 0 2.859375 0.828125q0.953125 0.828125 0.953125 2.015625q0 0.9375 -0.609375 1.828125q-0.59375 0.875 -1.78125 1.421875q-1.1875 0.546875 -2.5625 0.546875q-0.859375 0 -2.171875 -0.296875l-0.984375 3.359375q-0.34375 1.203125 -0.34375 1.59375q0 0.28125 0.234375 0.484375q0.25 0.1875 1.1875 0.234375l-0.09375 0.34375l-4.921875 0l0.109375 -0.34375q0.96875 0 1.34375 -0.328125q0.375 -0.328125 0.8125 -1.828125l2.046875 -7.03125q0.359375 -1.265625 0.359375 -1.703125q0 -0.3125 -0.265625 -0.515625q-0.25 -0.21875 -1.140625 -0.265625l0.109375 -0.34375zm1.703125 5.765625q1.015625 0.265625 1.65625 0.265625q0.984375 0 1.796875 -0.40625q0.828125 -0.421875 1.28125 -1.234375q0.453125 -0.828125 0.453125 -1.703125q0 -0.921875 -0.5625 -1.453125q-0.5625 -0.546875 -1.703125 -0.546875q-0.625 0 -1.5 0.15625l-1.421875 4.921875zm12.31781 -6.359375l-3.109375 10.84375q-0.234375 0.8125 -0.234375 0.984375q0 0.140625 0.078125 0.234375q0.09375 0.09375 0.21875 0.09375q0.171875 0 0.375 -0.15625q0.484375 -0.375 1.0 -1.15625l0.265625 0.28125q-0.859375 1.21875 -1.59375 1.703125q-0.53125 0.34375 -1.015625 0.34375q-0.34375 0 -0.578125 -0.234375q-0.234375 -0.234375 -0.234375 -0.546875q0 -0.328125 0.296875 -1.34375l2.46875 -8.546875q0.296875 -1.046875 0.296875 -1.203125q0 -0.21875 -0.171875 -0.359375q-0.171875 -0.140625 -0.546875 -0.140625q-0.203125 0 -0.625 0.0625l0 -0.34375l3.109375 -0.515625zm8.386475 4.703125l-1.765625 6.1875l-0.203125 0.828125q-0.03125 0.109375 -0.03125 0.203125q0 0.140625 0.09375 0.25q0.078125 0.078125 0.171875 0.078125q0.125 0 0.3125 -0.140625q0.359375 -0.265625 0.953125 -1.09375l0.3125 0.21875q-0.625 0.9375 -1.296875 1.4375q-0.671875 0.5 -1.234375 0.5q-0.390625 0 -0.59375 -0.203125q-0.1875 -0.1875 -0.1875 -0.5625q0 -0.453125 0.203125 -1.171875l0.1875 -0.6875q-1.1875 1.5625 -2.1875 2.171875q-0.71875 0.453125 -1.421875 0.453125q-0.65625 0 -1.140625 -0.546875q-0.484375 -0.5625 -0.484375 -1.515625q0 -1.453125 0.859375 -3.0625q0.875 -1.609375 2.21875 -2.578125q1.046875 -0.765625 1.984375 -0.765625q0.546875 0 0.90625 0.296875q0.375 0.296875 0.578125 0.96875l0.328125 -1.046875l1.4375 -0.21875zm-3.234375 0.484375q-0.59375 0 -1.25 0.546875q-0.921875 0.765625 -1.65625 2.296875q-0.71875 1.515625 -0.71875 2.75q0 0.609375 0.3125 0.96875q0.3125 0.359375 0.71875 0.359375q0.984375 0 2.15625 -1.46875q1.546875 -1.9375 1.546875 -3.984375q0 -0.78125 -0.296875 -1.125q-0.296875 -0.34375 -0.8125 -0.34375zm7.9375 -0.484375l-1.21875 4.15625q1.703125 -2.546875 2.609375 -3.34375q0.90625 -0.8125 1.75 -0.8125q0.453125 0 0.75 0.3125q0.296875 0.296875 0.296875 0.78125q0 0.546875 -0.265625 1.453125l-1.109375 3.828125q-0.203125 0.671875 -0.203125 0.8125q0 0.140625 0.078125 0.234375q0.078125 0.078125 0.15625 0.078125q0.109375 0 0.265625 -0.125q0.484375 -0.375 1.0625 -1.171875l0.28125 0.171875q-0.859375 1.21875 -1.609375 1.734375q-0.53125 0.359375 -0.953125 0.359375q-0.328125 0 -0.53125 -0.203125q-0.203125 -0.203125 -0.203125 -0.546875q0 -0.4375 0.3125 -1.515625l1.0625 -3.65625q0.1875 -0.6875 0.1875 -1.0625q0 -0.1875 -0.125 -0.296875q-0.109375 -0.109375 -0.28125 -0.109375q-0.25 0 -0.609375 0.21875q-0.671875 0.40625 -1.40625 1.34375q-0.71875 0.9375 -1.53125 2.40625q-0.4375 0.78125 -0.71875 1.703125l-0.453125 1.5l-1.359375 0l1.65625 -5.703125q0.296875 -1.03125 0.296875 -1.234375q0 -0.203125 -0.171875 -0.34375q-0.15625 -0.15625 -0.390625 -0.15625q-0.109375 0 -0.390625 0.03125l-0.34375 0.0625l-0.046875 -0.328125l3.15625 -0.578125zm7.421875 4.8125q-0.0625 0.453125 -0.0625 0.765625q0 0.796875 0.578125 1.375q0.578125 0.5625 1.390625 0.5625q0.65625 0 1.265625 -0.265625q0.609375 -0.265625 1.796875 -1.1875l0.1875 0.265625q-2.15625 2.140625 -4.109375 2.140625q-1.328125 0 -2.015625 -0.828125q-0.671875 -0.84375 -0.671875 -1.859375q0 -1.359375 0.84375 -2.78125q0.84375 -1.421875 2.109375 -2.203125q1.265625 -0.796875 2.59375 -0.796875q0.96875 0 1.4375 0.40625q0.46875 0.390625 0.46875 0.921875q0 0.75 -0.609375 1.453125q-0.796875 0.890625 -2.328125 1.453125q-1.015625 0.375 -2.875 0.578125zm0.0625 -0.4375q1.359375 -0.15625 2.203125 -0.53125q1.125 -0.5 1.671875 -1.1875q0.5625 -0.703125 0.5625 -1.34375q0 -0.375 -0.25 -0.609375q-0.234375 -0.234375 -0.671875 -0.234375q-0.9375 0 -1.984375 0.984375q-1.03125 0.984375 -1.53125 2.921875z" fill-rule="nonzero"/><path fill="#000000" fill-opacity="0.0" d="m511.11548 137.2021l0 -58.897644" fill-rule="evenodd"/><path stroke="#0000ff" stroke-width="3.0" stroke-linejoin="round" stroke-linecap="butt" d="m511.11548 137.2021l0 -58.897644" fill-rule="evenodd"/><path fill="#000000" fill-opacity="0.0" d="m598.6116 47.343834l128.22046 0l0 21.732285l-128.22046 0z" fill-rule="evenodd"/><path fill="#0000ff" d="m615.6759 53.42685l-1.453125 4.890625l1.625 0q1.09375 0 1.625 -0.328125q0.546875 -0.34375 1.125 -1.4375l0.34375 0l-1.28125 4.5l-0.375 0q0.140625 -0.546875 0.140625 -0.90625q0 -0.546875 -0.375 -0.859375q-0.359375 -0.3125 -1.375 -0.3125l-1.640625 0l-1.0625 3.734375q-0.296875 0.984375 -0.296875 1.3125q0 0.34375 0.25 0.53125q0.25 0.171875 1.21875 0.234375l-0.109375 0.34375l-4.875 0l0.109375 -0.34375q0.71875 -0.015625 0.953125 -0.125q0.359375 -0.15625 0.53125 -0.421875q0.25 -0.359375 0.59375 -1.53125l2.171875 -7.4375q0.265625 -0.90625 0.265625 -1.421875q0 -0.234375 -0.125 -0.390625q-0.109375 -0.171875 -0.34375 -0.25q-0.234375 -0.09375 -0.921875 -0.09375l0.109375 -0.34375l9.578125 0l-0.90625 3.125l-0.34375 0q0.09375 -0.5625 0.09375 -0.921875q0 -0.609375 -0.328125 -0.953125q-0.328125 -0.34375 -0.859375 -0.5q-0.359375 -0.09375 -1.625 -0.09375l-2.4375 0zm13.958496 6.3125q0 1.359375 -0.734375 2.703125q-0.71875 1.34375 -2.015625 2.125q-1.28125 0.78125 -2.5 0.78125q-1.25 0 -2.046875 -0.796875q-0.78125 -0.796875 -0.78125 -2.0625q0 -1.34375 0.765625 -2.6875q0.78125 -1.34375 2.0625 -2.125q1.296875 -0.796875 2.484375 -0.796875q1.203125 0 1.984375 0.796875q0.78125 0.796875 0.78125 2.0625zm-1.515625 -0.625q0 -0.859375 -0.421875 -1.296875q-0.40625 -0.453125 -1.0625 -0.453125q-1.328125 0 -2.453125 1.921875q-1.125 1.90625 -1.125 3.796875q0 0.875 0.4375 1.34375q0.4375 0.46875 1.09375 0.46875q1.28125 0 2.40625 -1.90625q1.125 -1.90625 1.125 -3.875zm11.0 -2.015625l-1.578125 5.4375q-0.359375 1.203125 -0.359375 1.53125q0 0.15625 0.046875 0.234375q0.0625 0.078125 0.171875 0.078125q0.15625 0 0.34375 -0.140625q0.1875 -0.140625 0.9375 -1.125l0.28125 0.21875q-0.734375 1.125 -1.484375 1.671875q-0.5 0.34375 -0.96875 0.34375q-0.34375 0 -0.546875 -0.203125q-0.203125 -0.203125 -0.203125 -0.515625q0 -0.3125 0.109375 -0.828125q0.15625 -0.671875 0.84375 -2.921875q-1.5625 2.53125 -2.609375 3.5q-1.03125 0.96875 -1.921875 0.96875q-0.421875 0 -0.71875 -0.28125q-0.28125 -0.296875 -0.28125 -0.75q0 -0.6875 0.390625 -2.09375l0.796875 -2.8125q0.296875 -1.015625 0.296875 -1.265625q0 -0.109375 -0.078125 -0.171875q-0.078125 -0.078125 -0.171875 -0.078125q-0.1875 0 -0.390625 0.140625q-0.1875 0.125 -0.859375 1.0l-0.28125 -0.203125q0.6875 -1.046875 1.453125 -1.5625q0.578125 -0.390625 1.0625 -0.390625q0.34375 0 0.546875 0.21875q0.21875 0.21875 0.21875 0.546875q0 0.5 -0.359375 1.765625l-0.859375 2.9375q-0.34375 1.203125 -0.34375 1.53125q0 0.171875 0.109375 0.28125q0.109375 0.09375 0.296875 0.09375q0.3125 0 0.78125 -0.296875q0.484375 -0.296875 1.296875 -1.328125q0.8125 -1.046875 1.328125 -1.953125q0.53125 -0.90625 1.125 -2.875l0.1875 -0.703125l1.390625 0zm1.515625 0.296875l3.15625 -0.515625l-1.3125 4.4375q1.59375 -2.734375 2.890625 -3.8125q0.734375 -0.625 1.203125 -0.625q0.296875 0 0.46875 0.1875q0.171875 0.171875 0.171875 0.515625q0 0.59375 -0.3125 1.140625q-0.21875 0.40625 -0.625 0.40625q-0.203125 0 -0.359375 -0.125q-0.140625 -0.140625 -0.1875 -0.421875q-0.015625 -0.171875 -0.078125 -0.234375q-0.078125 -0.0625 -0.171875 -0.0625q-0.15625 0 -0.296875 0.0625q-0.234375 0.125 -0.71875 0.71875q-0.75 0.890625 -1.640625 2.3125q-0.375 0.59375 -0.65625 1.359375q-0.375 1.03125 -0.4375 1.25l-0.28125 1.140625l-1.40625 0l1.6875 -5.65625q0.296875 -0.984375 0.296875 -1.40625q0 -0.15625 -0.140625 -0.265625q-0.171875 -0.15625 -0.484375 -0.15625q-0.1875 0 -0.703125 0.09375l-0.0625 -0.34375zm10.463379 -4.125q0.390625 0 0.640625 0.265625q0.265625 0.265625 0.265625 0.640625q0 0.375 -0.265625 0.65625q-0.265625 0.265625 -0.640625 0.265625q-0.375 0 -0.640625 -0.265625q-0.265625 -0.28125 -0.265625 -0.65625q0 -0.375 0.265625 -0.640625q0.265625 -0.265625 0.640625 -0.265625zm0.125 3.609375l-1.8125 6.390625q-0.171875 0.640625 -0.171875 0.78125q0 0.140625 0.078125 0.234375q0.09375 0.09375 0.203125 0.09375q0.140625 0 0.328125 -0.15625q0.515625 -0.40625 1.046875 -1.15625l0.328125 0.203125q-0.625 0.953125 -1.46875 1.59375q-0.609375 0.484375 -1.171875 0.484375q-0.375 0 -0.625 -0.21875q-0.234375 -0.234375 -0.234375 -0.5625q0 -0.34375 0.234375 -1.125l1.1875 -4.078125q0.28125 -1.0 0.28125 -1.25q0 -0.203125 -0.140625 -0.328125q-0.140625 -0.140625 -0.375 -0.140625q-0.203125 0 -0.84375 0.109375l0 -0.359375l3.15625 -0.515625zm3.1051636 4.8125q-0.0625 0.453125 -0.0625 0.765625q0 0.796875 0.578125 1.375q0.578125 0.5625 1.390625 0.5625q0.65625 0 1.265625 -0.265625q0.609375 -0.265625 1.796875 -1.1875l0.1875 0.265625q-2.15625 2.140625 -4.109375 2.140625q-1.328125 0 -2.015625 -0.828125q-0.671875 -0.84375 -0.671875 -1.859375q0 -1.359375 0.84375 -2.78125q0.84375 -1.421875 2.109375 -2.203125q1.265625 -0.796875 2.59375 -0.796875q0.96875 0 1.4375 0.40625q0.46875 0.390625 0.46875 0.921875q0 0.75 -0.609375 1.453125q-0.796875 0.890625 -2.328125 1.453125q-1.015625 0.375 -2.875 0.578125zm0.0625 -0.4375q1.359375 -0.15625 2.203125 -0.53125q1.125 -0.5 1.671875 -1.1875q0.5625 -0.703125 0.5625 -1.34375q0 -0.375 -0.25 -0.609375q-0.234375 -0.234375 -0.671875 -0.234375q-0.9375 0 -1.984375 0.984375q-1.03125 0.984375 -1.53125 2.921875zm6.9680786 -3.859375l3.15625 -0.515625l-1.3125 4.4375q1.59375 -2.734375 2.890625 -3.8125q0.734375 -0.625 1.203125 -0.625q0.296875 0 0.46875 0.1875q0.171875 0.171875 0.171875 0.515625q0 0.59375 -0.3125 1.140625q-0.21875 0.40625 -0.625 0.40625q-0.203125 0 -0.359375 -0.125q-0.140625 -0.140625 -0.1875 -0.421875q-0.015625 -0.171875 -0.078125 -0.234375q-0.078125 -0.0625 -0.171875 -0.0625q-0.15625 0 -0.296875 0.0625q-0.234375 0.125 -0.71875 0.71875q-0.75 0.890625 -1.640625 2.3125q-0.375 0.59375 -0.65625 1.359375q-0.375 1.03125 -0.4375 1.25l-0.28125 1.140625l-1.40625 0l1.6875 -5.65625q0.296875 -0.984375 0.296875 -1.40625q0 -0.15625 -0.140625 -0.265625q-0.171875 -0.15625 -0.484375 -0.15625q-0.1875 0 -0.703125 0.09375l-0.0625 -0.34375zm13.877441 -4.625l4.859375 0q1.90625 0 2.859375 0.828125q0.953125 0.828125 0.953125 2.015625q0 0.9375 -0.609375 1.828125q-0.59375 0.875 -1.78125 1.421875q-1.1875 0.546875 -2.5625 0.546875q-0.859375 0 -2.171875 -0.296875l-0.984375 3.359375q-0.34375 1.203125 -0.34375 1.59375q0 0.28125 0.234375 0.484375q0.25 0.1875 1.1875 0.234375l-0.09375 0.34375l-4.921875 0l0.109375 -0.34375q0.96875 0 1.34375 -0.328125q0.375 -0.328125 0.8125 -1.828125l2.046875 -7.03125q0.359375 -1.265625 0.359375 -1.703125q0 -0.3125 -0.265625 -0.515625q-0.25 -0.21875 -1.140625 -0.265625l0.109375 -0.34375zm1.703125 5.765625q1.015625 0.265625 1.65625 0.265625q0.984375 0 1.796875 -0.40625q0.828125 -0.421875 1.28125 -1.234375q0.453125 -0.828125 0.453125 -1.703125q0 -0.921875 -0.5625 -1.453125q-0.5625 -0.546875 -1.703125 -0.546875q-0.625 0 -1.5 0.15625l-1.421875 4.921875zm12.317871 -6.359375l-3.109375 10.84375q-0.234375 0.8125 -0.234375 0.984375q0 0.140625 0.078125 0.234375q0.09375 0.09375 0.21875 0.09375q0.171875 0 0.375 -0.15625q0.484375 -0.375 1.0 -1.15625l0.265625 0.28125q-0.859375 1.21875 -1.59375 1.703125q-0.53125 0.34375 -1.015625 0.34375q-0.34375 0 -0.578125 -0.234375q-0.234375 -0.234375 -0.234375 -0.546875q0 -0.328125 0.296875 -1.34375l2.46875 -8.546875q0.296875 -1.046875 0.296875 -1.203125q0 -0.21875 -0.171875 -0.359375q-0.171875 -0.140625 -0.546875 -0.140625q-0.203125 0 -0.625 0.0625l0 -0.34375l3.109375 -0.515625zm8.386414 4.703125l-1.765625 6.1875l-0.203125 0.828125q-0.03125 0.109375 -0.03125 0.203125q0 0.140625 0.09375 0.25q0.078125 0.078125 0.171875 0.078125q0.125 0 0.3125 -0.140625q0.359375 -0.265625 0.953125 -1.09375l0.3125 0.21875q-0.625 0.9375 -1.296875 1.4375q-0.671875 0.5 -1.234375 0.5q-0.390625 0 -0.59375 -0.203125q-0.1875 -0.1875 -0.1875 -0.5625q0 -0.453125 0.203125 -1.171875l0.1875 -0.6875q-1.1875 1.5625 -2.1875 2.171875q-0.71875 0.453125 -1.421875 0.453125q-0.65625 0 -1.140625 -0.546875q-0.484375 -0.5625 -0.484375 -1.515625q0 -1.453125 0.859375 -3.0625q0.875 -1.609375 2.21875 -2.578125q1.046875 -0.765625 1.984375 -0.765625q0.546875 0 0.90625 0.296875q0.375 0.296875 0.578125 0.96875l0.328125 -1.046875l1.4375 -0.21875zm-3.234375 0.484375q-0.59375 0 -1.25 0.546875q-0.921875 0.765625 -1.65625 2.296875q-0.71875 1.515625 -0.71875 2.75q0 0.609375 0.3125 0.96875q0.3125 0.359375 0.71875 0.359375q0.984375 0 2.15625 -1.46875q1.546875 -1.9375 1.546875 -3.984375q0 -0.78125 -0.296875 -1.125q-0.296875 -0.34375 -0.8125 -0.34375zm7.9375 -0.484375l-1.21875 4.15625q1.703125 -2.546875 2.609375 -3.34375q0.90625 -0.8125 1.75 -0.8125q0.453125 0 0.75 0.3125q0.296875 0.296875 0.296875 0.78125q0 0.546875 -0.265625 1.453125l-1.109375 3.828125q-0.203125 0.671875 -0.203125 0.8125q0 0.140625 0.078125 0.234375q0.078125 0.078125 0.15625 0.078125q0.109375 0 0.265625 -0.125q0.484375 -0.375 1.0625 -1.171875l0.28125 0.171875q-0.859375 1.21875 -1.609375 1.734375q-0.53125 0.359375 -0.953125 0.359375q-0.328125 0 -0.53125 -0.203125q-0.203125 -0.203125 -0.203125 -0.546875q0 -0.4375 0.3125 -1.515625l1.0625 -3.65625q0.1875 -0.6875 0.1875 -1.0625q0 -0.1875 -0.125 -0.296875q-0.109375 -0.109375 -0.28125 -0.109375q-0.25 0 -0.609375 0.21875q-0.671875 0.40625 -1.40625 1.34375q-0.71875 0.9375 -1.53125 2.40625q-0.4375 0.78125 -0.71875 1.703125l-0.453125 1.5l-1.359375 0l1.65625 -5.703125q0.296875 -1.03125 0.296875 -1.234375q0 -0.203125 -0.171875 -0.34375q-0.15625 -0.15625 -0.390625 -0.15625q-0.109375 0 -0.390625 0.03125l-0.34375 0.0625l-0.046875 -0.328125l3.15625 -0.578125zm7.421875 4.8125q-0.0625 0.453125 -0.0625 0.765625q0 0.796875 0.578125 1.375q0.578125 0.5625 1.390625 0.5625q0.65625 0 1.265625 -0.265625q0.609375 -0.265625 1.796875 -1.1875l0.1875 0.265625q-2.15625 2.140625 -4.109375 2.140625q-1.328125 0 -2.015625 -0.828125q-0.671875 -0.84375 -0.671875 -1.859375q0 -1.359375 0.84375 -2.78125q0.84375 -1.421875 2.109375 -2.203125q1.265625 -0.796875 2.59375 -0.796875q0.96875 0 1.4375 0.40625q0.46875 0.390625 0.46875 0.921875q0 0.75 -0.609375 1.453125q-0.796875 0.890625 -2.328125 1.453125q-1.015625 0.375 -2.875 0.578125zm0.0625 -0.4375q1.359375 -0.15625 2.203125 -0.53125q1.125 -0.5 1.671875 -1.1875q0.5625 -0.703125 0.5625 -1.34375q0 -0.375 -0.25 -0.609375q-0.234375 -0.234375 -0.671875 -0.234375q-0.9375 0 -1.984375 0.984375q-1.03125 0.984375 -1.53125 2.921875z" fill-rule="nonzero"/><path fill="#000000" fill-opacity="0.0" d="m661.42255 137.2021l0 -58.897644" fill-rule="evenodd"/><path stroke="#0000ff" stroke-width="3.0" stroke-linejoin="round" stroke-linecap="butt" d="m661.42255 137.2021l0 -58.897644" fill-rule="evenodd"/><path fill="#000000" fill-opacity="0.0" d="m354.6168 167.03412l112.53543 0" fill-rule="evenodd"/><path stroke="#000000" stroke-width="2.0" stroke-linejoin="round" stroke-linecap="butt" d="m362.1968 167.03412l97.3754 0" fill-rule="evenodd"/><path stroke="#000000" stroke-width="2.0" stroke-linecap="butt" d="m355.6168 167.03412c0 -1.8170166 1.472992 -3.2899933 3.2900085 -3.2899933c1.8170166 0 3.2900085 1.4729767 3.2900085 3.2899933c0 1.8170166 -1.472992 3.2900085 -3.2900085 3.2900085c-1.8170166 0 -3.2900085 -1.472992 -3.2900085 -3.2900085z" fill-rule="nonzero"/><path stroke="#000000" stroke-width="2.0" stroke-linecap="butt" d="m466.15222 167.03412c0 1.8170166 -1.4729614 3.2900085 -3.289978 3.2900085c-1.8170166 0 -3.2900085 -1.472992 -3.2900085 -3.2900085c0 -1.8170166 1.472992 -3.2899933 3.2900085 -3.2899933c1.8170166 0 3.289978 1.4729767 3.289978 3.2899933z" fill-rule="nonzero"/><path fill="#000000" fill-opacity="0.0" d="m458.5223 167.0105l103.71652 0" fill-rule="evenodd"/><path stroke="#000000" stroke-width="2.0" stroke-linejoin="round" stroke-linecap="butt" d="m466.10233 167.0105l88.55649 0" fill-rule="evenodd"/><path stroke="#000000" stroke-width="2.0" stroke-linecap="butt" d="m459.5223 167.0105c0 -1.8170166 1.472992 -3.2899933 3.2900085 -3.2899933c1.8170166 0 3.289978 1.4729767 3.289978 3.2899933c0 1.8170166 -1.4729614 3.2899933 -3.289978 3.2899933c-1.8170166 0 -3.2900085 -1.4729767 -3.2900085 -3.2899933z" fill-rule="nonzero"/><path stroke="#000000" stroke-width="2.0" stroke-linecap="butt" d="m561.23883 167.0105c0 1.8170166 -1.4729614 3.2899933 -3.289978 3.2899933c-1.8170166 0 -3.289978 -1.4729767 -3.289978 -3.2899933c0 -1.8170166 1.4729614 -3.2899933 3.289978 -3.2899933c1.8170166 0 3.289978 1.4729767 3.289978 3.2899933z" fill-rule="nonzero"/><path fill="#000000" fill-opacity="0.0" d="m553.6011 167.1916l112.0 0" fill-rule="evenodd"/><path stroke="#000000" stroke-width="2.0" stroke-linejoin="round" stroke-linecap="butt" d="m561.1811 167.1916l96.839966 0" fill-rule="evenodd"/><path stroke="#000000" stroke-width="2.0" stroke-linecap="butt" d="m554.6011 167.1916c0 -1.8170166 1.4729614 -3.2900085 3.289978 -3.2900085c1.8170166 0 3.289978 1.472992 3.289978 3.2900085c0 1.8170166 -1.4729614 3.2899933 -3.289978 3.2899933c-1.8170166 0 -3.289978 -1.4729767 -3.289978 -3.2899933z" fill-rule="nonzero"/><path stroke="#000000" stroke-width="2.0" stroke-linecap="butt" d="m664.6011 167.1916c0 1.8170166 -1.4730225 3.2899933 -3.290039 3.2899933c-1.8170166 0 -3.289978 -1.4729767 -3.289978 -3.2899933c0 -1.8170166 1.4729614 -3.2900085 3.289978 -3.2900085c1.8170166 0 3.290039 1.472992 3.290039 3.2900085z" fill-rule="nonzero"/><path fill="#000000" fill-opacity="0.0" d="m656.82416 167.24934l115.27557 0" fill-rule="evenodd"/><path stroke="#000000" stroke-width="2.0" stroke-linejoin="round" stroke-linecap="butt" d="m664.4042 167.24934l100.1156 0" fill-rule="evenodd"/><path stroke="#000000" stroke-width="2.0" stroke-linecap="butt" d="m657.82416 167.24934c0 -1.8170166 1.4729614 -3.2899933 3.289978 -3.2899933c1.8170166 0 3.290039 1.4729767 3.290039 3.2899933c0 1.8170166 -1.4730225 3.2899933 -3.290039 3.2899933c-1.8170166 0 -3.289978 -1.4729767 -3.289978 -3.2899933z" fill-rule="nonzero"/><path stroke="#000000" stroke-width="2.0" stroke-linecap="butt" d="m771.09973 167.24934c0 1.8170166 -1.4729614 3.2899933 -3.289978 3.2899933c-1.8170166 0 -3.290039 -1.4729767 -3.290039 -3.2899933c0 -1.8170166 1.4730225 -3.2899933 3.290039 -3.2899933c1.8170166 0 3.289978 1.4729767 3.289978 3.2899933z" fill-rule="nonzero"/></g></svg>